STARTFONT 2.1
FONT -Adobe-Courier-Bold-O-Normal--24-240-75-75-M-150-ISO8859-2
SIZE 24 75 75
FONTBOUNDINGBOX 19 25 -1 -5
COMMENT $XConsortium: courBO24.bdf,v 1.11 95/01/26 18:00:31 gildea Exp $
COMMENT 
COMMENT +
COMMENT  Copyright 1984-1989, 1994 Adobe Systems Incorporated.
COMMENT  Copyright 1988, 1994 Digital Equipment Corporation.
COMMENT
COMMENT  Adobe is a trademark of Adobe Systems Incorporated which may be
COMMENT  registered in certain jurisdictions.
COMMENT  Permission to use these trademarks is hereby granted only in
COMMENT  association with the images described in this file.
COMMENT
COMMENT  Permission to use, copy, modify, distribute and sell this software
COMMENT  and its documentation for any purpose and without fee is hereby
COMMENT  granted, provided that the above copyright notices appear in all
COMMENT  copies and that both those copyright notices and this permission
COMMENT  notice appear in supporting documentation, and that the names of
COMMENT  Adobe Systems and Digital Equipment Corporation not be used in
COMMENT  advertising or publicity pertaining to distribution of the software
COMMENT  without specific, written prior permission.  Adobe Systems and
COMMENT  Digital Equipment Corporation make no representations about the
COMMENT  suitability of this software for any purpose.  It is provided "as
COMMENT  is" without express or implied warranty.
COMMENT -
COMMENT  
COMMENT  Translation to ISO8859-2 by Cub Soft;  Petr.Kolar@vslib.cz
COMMENT  
STARTPROPERTIES 28
FOUNDRY "Adobe"
FAMILY_NAME "Courier"
WEIGHT_NAME "Bold"
SLANT "O"
SETWIDTH_NAME "Normal"
ADD_STYLE_NAME ""
PIXEL_SIZE 24
POINT_SIZE 240
RESOLUTION_X 75
RESOLUTION_Y 75
SPACING "M"
AVERAGE_WIDTH 150
CHARSET_REGISTRY "ISO8859"
CHARSET_ENCODING "2"
CAP_HEIGHT 15
X_HEIGHT 11
FONT_ASCENT 19
FONT_DESCENT 5
FACE_NAME "Courier Bold Oblique"

STARTCHAR space
ENCODING 32
SWIDTH 600 0
DWIDTH 15 0
BBX 1 1 0 0
BITMAP
00
ENDCHAR
STARTCHAR exclam
ENCODING 33
SWIDTH 600 0
DWIDTH 15 0
BBX 6 16 6 0
BITMAP
0c
1c
1c
3c
38
38
30
70
60
60
60
40
00
00
c0
c0
ENDCHAR
STARTCHAR quotedbl
ENCODING 34
SWIDTH 600 0
DWIDTH 15 0
BBX 8 7 6 8
BITMAP
e7
e7
e7
c6
c6
84
84
ENDCHAR
STARTCHAR numbersign
ENCODING 35
SWIDTH 600 0
DWIDTH 15 0
BBX 13 19 2 -2
BITMAP
0198
0198
0330
0330
0660
0660
3ff8
3ff8
0cc0
1980
1980
ffe0
ffe0
3300
3300
6600
6600
cc00
cc00
ENDCHAR
STARTCHAR dollar
ENCODING 36
SWIDTH 600 0
DWIDTH 15 0
BBX 12 19 2 -2
BITMAP
0180
0180
0fb0
1ff0
3870
3030
3800
1e00
0f80
03c0
00e0
0060
c060
e0e0
ffc0
df80
0c00
0c00
0c00
ENDCHAR
STARTCHAR percent
ENCODING 37
SWIDTH 600 0
DWIDTH 15 0
BBX 14 15 2 0
BITMAP
0780
0cc0
18c0
18c0
1980
0f1c
00f0
0780
3c00
e3c0
0660
0c60
0c60
0cc0
0780
ENDCHAR
STARTCHAR ampersand
ENCODING 38
SWIDTH 600 0
DWIDTH 15 0
BBX 11 14 2 0
BITMAP
03c0
07e0
0e60
1c00
1800
1800
1c00
3e60
67e0
c3c0
c180
c3c0
ffe0
7e60
ENDCHAR
STARTCHAR apostrophe
ENCODING 39
SWIDTH 600 0
DWIDTH 15 0
BBX 5 6 7 9
BITMAP
38
38
70
60
c0
80
ENDCHAR
STARTCHAR parenleft
ENCODING 40
SWIDTH 600 0
DWIDTH 15 0
BBX 9 20 6 -4
BITMAP
0380
0600
0c00
1800
1800
3000
3000
6000
6000
6000
c000
c000
c000
c000
c000
c000
c000
6000
6000
3000
ENDCHAR
STARTCHAR parenright
ENCODING 41
SWIDTH 600 0
DWIDTH 15 0
BBX 8 20 2 -4
BITMAP
0c
06
06
03
03
03
03
03
03
03
06
06
06
0c
0c
18
18
30
60
c0
ENDCHAR
STARTCHAR asterisk
ENCODING 42
SWIDTH 600 0
DWIDTH 15 0
BBX 10 10 5 7
BITMAP
0c00
0c00
ccc0
edc0
3f00
0c00
3e00
6300
e300
c300
ENDCHAR
STARTCHAR plus
ENCODING 43
SWIDTH 600 0
DWIDTH 15 0
BBX 13 14 2 0
BITMAP
0180
0180
0180
0300
0300
0300
fff8
fff8
0600
0600
0c00
0c00
0c00
0c00
ENDCHAR
STARTCHAR comma
ENCODING 44
SWIDTH 600 0
DWIDTH 15 0
BBX 5 6 4 -3
BITMAP
38
38
70
60
c0
80
ENDCHAR
STARTCHAR minus
ENCODING 45
SWIDTH 600 0
DWIDTH 15 0
BBX 13 2 2 6
BITMAP
fff8
fff8
ENDCHAR
STARTCHAR period
ENCODING 46
SWIDTH 600 0
DWIDTH 15 0
BBX 3 3 5 0
BITMAP
e0
e0
e0
ENDCHAR
STARTCHAR slash
ENCODING 47
SWIDTH 600 0
DWIDTH 15 0
BBX 19 18 -1 -2
BITMAP
000060
0000c0
000180
000300
000600
000c00
001800
003000
006000
00c000
018000
030000
060000
0c0000
180000
300000
600000
c00000
ENDCHAR
STARTCHAR zero
ENCODING 48
SWIDTH 600 0
DWIDTH 15 0
BBX 12 16 3 0
BITMAP
07c0
0fe0
1830
3030
3030
6030
6030
6030
c060
c060
c060
c0c0
c0c0
c180
7f00
3e00
ENDCHAR
STARTCHAR one
ENCODING 49
SWIDTH 600 0
DWIDTH 15 0
BBX 10 16 2 0
BITMAP
0180
1f80
1f80
0180
0300
0300
0300
0600
0600
0600
0600
0c00
0c00
0c00
ffc0
ffc0
ENDCHAR
STARTCHAR two
ENCODING 50
SWIDTH 600 0
DWIDTH 15 0
BBX 14 16 1 0
BITMAP
01f8
07fc
0e0c
0c0c
0c0c
001c
0038
0070
01e0
03c0
0700
1e00
3800
7000
ffe0
ffe0
ENDCHAR
STARTCHAR three
ENCODING 51
SWIDTH 600 0
DWIDTH 15 0
BBX 14 16 1 0
BITMAP
01f0
07f8
0e1c
0c0c
000c
001c
0078
03f0
03e0
0070
0030
0030
c070
e0e0
7fe0
3f80
ENDCHAR
STARTCHAR four
ENCODING 52
SWIDTH 600 0
DWIDTH 15 0
BBX 11 16 2 0
BITMAP
00e0
01e0
0360
0660
0cc0
0cc0
18c0
30c0
3180
6180
ffe0
ffe0
0300
0300
1fc0
1fc0
ENDCHAR
STARTCHAR five
ENCODING 53
SWIDTH 600 0
DWIDTH 15 0
BBX 13 16 2 0
BITMAP
0ff8
0ff8
0c00
0c00
1800
1bc0
1fe0
1c70
0030
0030
0030
0030
c070
e0e0
7fc0
3f80
ENDCHAR
STARTCHAR six
ENCODING 54
SWIDTH 600 0
DWIDTH 15 0
BBX 13 16 3 0
BITMAP
00f8
03f8
0780
0e00
1c00
3800
3780
7fc0
60e0
e060
c060
c060
e0e0
71c0
7f80
1f00
ENDCHAR
STARTCHAR seven
ENCODING 55
SWIDTH 600 0
DWIDTH 15 0
BBX 10 16 5 0
BITMAP
7fc0
ffc0
c180
0180
0300
0300
0600
0600
0c00
0c00
1800
1800
3000
3000
6000
6000
ENDCHAR
STARTCHAR eight
ENCODING 56
SWIDTH 600 0
DWIDTH 15 0
BBX 13 16 2 0
BITMAP
03e0
0ff0
1c38
1818
3018
3030
1860
1fc0
3fc0
60e0
c060
c060
c060
e0c0
7f80
3f00
ENDCHAR
STARTCHAR nine
ENCODING 57
SWIDTH 600 0
DWIDTH 15 0
BBX 12 16 3 0
BITMAP
03c0
0fe0
1c60
3830
7030
6030
6030
6070
70e0
3fe0
1ec0
01c0
0380
0700
fe00
f800
ENDCHAR
STARTCHAR colon
ENCODING 58
SWIDTH 600 0
DWIDTH 15 0
BBX 5 11 5 0
BITMAP
38
38
38
00
00
00
00
00
e0
e0
e0
ENDCHAR
STARTCHAR semicolon
ENCODING 59
SWIDTH 600 0
DWIDTH 15 0
BBX 6 14 4 -3
BITMAP
1c
1c
1c
00
00
00
00
00
38
38
70
60
c0
80
ENDCHAR
STARTCHAR less
ENCODING 60
SWIDTH 600 0
DWIDTH 15 0
BBX 15 11 2 2
BITMAP
001e
0078
01e0
0780
1e00
7800
f000
3c00
0f00
03c0
00f0
ENDCHAR
STARTCHAR equal
ENCODING 61
SWIDTH 600 0
DWIDTH 15 0
BBX 13 6 2 4
BITMAP
7ff8
7ff8
0000
0000
fff0
fff0
ENDCHAR
STARTCHAR greater
ENCODING 62
SWIDTH 600 0
DWIDTH 15 0
BBX 15 11 1 2
BITMAP
1e00
0780
01e0
0078
001e
003c
00f0
03c0
0f00
3c00
f000
ENDCHAR
STARTCHAR question
ENCODING 63
SWIDTH 600 0
DWIDTH 15 0
BBX 10 15 5 0
BITMAP
3f00
7f80
61c0
c0c0
c0c0
01c0
0380
0f00
1c00
3800
3000
0000
0000
6000
6000
ENDCHAR
STARTCHAR at
ENCODING 64
SWIDTH 600 0
DWIDTH 15 0
BBX 12 18 2 -2
BITMAP
03c0
0fe0
0c30
1830
1830
31f0
33e0
6660
6460
6cc0
ccc0
cfe0
c7e0
c000
c000
6180
7f00
1e00
ENDCHAR
STARTCHAR A
ENCODING 65
SWIDTH 600 0
DWIDTH 15 0
BBX 14 15 0 0
BITMAP
07e0
07e0
00e0
01e0
01b0
0330
0630
0630
0c30
1ff8
1ff8
3018
3018
fcfc
fcfc
ENDCHAR
STARTCHAR B
ENCODING 66
SWIDTH 600 0
DWIDTH 15 0
BBX 15 15 0 0
BITMAP
1ff8
1ffc
0606
0606
0c06
0c0c
0ff8
0ff8
181c
180c
180c
3018
3038
fff0
ffe0
ENDCHAR
STARTCHAR C
ENCODING 67
SWIDTH 600 0
DWIDTH 15 0
BBX 15 15 1 0
BITMAP
03f6
0ffe
1e0e
380c
700c
6000
e000
c000
c000
c000
c000
e030
7070
7fe0
1f80
ENDCHAR
STARTCHAR D
ENCODING 68
SWIDTH 600 0
DWIDTH 15 0
BBX 16 15 0 0
BITMAP
1ffc
1ffe
0607
0603
0c03
0c03
0c03
1803
1806
1806
300c
300c
3038
fff0
ffe0
ENDCHAR
STARTCHAR E
ENCODING 69
SWIDTH 600 0
DWIDTH 15 0
BBX 15 15 0 0
BITMAP
1ffe
1ffe
0606
060c
0c0c
0c60
0c60
0fe0
1fc0
18c0
18cc
300c
3018
fff8
fff8
ENDCHAR
STARTCHAR F
ENCODING 70
SWIDTH 600 0
DWIDTH 15 0
BBX 16 15 0 0
BITMAP
1fff
1fff
0603
0606
0c06
0c60
0c60
0fe0
1fc0
18c0
18c0
3000
3000
ff00
ff00
ENDCHAR
STARTCHAR G
ENCODING 71
SWIDTH 600 0
DWIDTH 15 0
BBX 15 15 1 0
BITMAP
03f6
0ffe
1e0e
380c
700c
6000
e000
c000
c1f8
c1f8
c018
e030
7070
7fe0
1fc0
ENDCHAR
STARTCHAR H
ENCODING 72
SWIDTH 600 0
DWIDTH 15 0
BBX 17 15 0 0
BITMAP
1f9f80
1f9f80
060600
060600
0c0c00
0c0c00
0ffc00
0ffc00
181800
181800
181800
303000
303000
fcfc00
fcfc00
ENDCHAR
STARTCHAR I
ENCODING 73
SWIDTH 600 0
DWIDTH 15 0
BBX 13 15 2 0
BITMAP
1ff8
1ff8
0180
0180
0300
0300
0300
0600
0600
0600
0c00
0c00
0c00
ffc0
ffc0
ENDCHAR
STARTCHAR J
ENCODING 74
SWIDTH 600 0
DWIDTH 15 0
BBX 16 15 1 0
BITMAP
03ff
03ff
0018
0018
0018
0030
0030
0030
0060
6060
6060
c0c0
e1c0
7f80
3f00
ENDCHAR
STARTCHAR K
ENCODING 75
SWIDTH 600 0
DWIDTH 15 0
BBX 16 15 0 0
BITMAP
1f9f
1f9f
0618
0630
0c60
0cc0
0f80
1f80
19c0
18c0
30e0
3060
3070
fc3c
fc3c
ENDCHAR
STARTCHAR L
ENCODING 76
SWIDTH 600 0
DWIDTH 15 0
BBX 13 15 1 0
BITMAP
1fe0
1fe0
0300
0300
0600
0600
0600
0c00
0c00
0c00
1818
1818
1830
fff0
fff0
ENDCHAR
STARTCHAR M
ENCODING 77
SWIDTH 600 0
DWIDTH 15 0
BBX 17 15 0 0
BITMAP
1e0780
1e0f80
0e0f00
0e1b00
1e3600
1b3600
1b6600
336c00
33cc00
318c00
619800
601800
601800
f87c00
f87c00
ENDCHAR
STARTCHAR N
ENCODING 78
SWIDTH 600 0
DWIDTH 15 0
BBX 16 15 0 0
BITMAP
1e1f
1e1f
0e06
0e06
1b0c
1b0c
1b0c
198c
3198
3198
30d8
60d8
60f0
f870
f870
ENDCHAR
STARTCHAR O
ENCODING 79
SWIDTH 600 0
DWIDTH 15 0
BBX 14 15 1 0
BITMAP
03e0
0ff8
1c38
381c
700c
600c
e00c
c00c
c01c
c018
c038
e070
71e0
7fc0
1f00
ENDCHAR
STARTCHAR P
ENCODING 80
SWIDTH 600 0
DWIDTH 15 0
BBX 16 15 0 0
BITMAP
1ff8
1ffe
0607
0603
0c03
0c03
0c06
180e
1ffc
1ff0
1800
3000
3000
ff00
ff00
ENDCHAR
STARTCHAR Q
ENCODING 81
SWIDTH 600 0
DWIDTH 15 0
BBX 14 18 1 -3
BITMAP
03e0
0ff8
1c38
381c
700c
600c
e00c
c00c
c01c
c018
c038
e070
71e0
7fc0
1f00
7860
ffe0
e780
ENDCHAR
STARTCHAR R
ENCODING 82
SWIDTH 600 0
DWIDTH 15 0
BBX 15 15 0 0
BITMAP
1ff0
1ffc
060e
0606
0c06
0c0e
0c1c
1ff8
1fe0
18e0
1860
3070
3030
fc3c
fc3c
ENDCHAR
STARTCHAR S
ENCODING 83
SWIDTH 600 0
DWIDTH 15 0
BBX 15 15 1 0
BITMAP
03f6
0ffe
0e0e
1c0c
180c
1e00
0f80
03e0
00f0
0038
6018
6018
7038
fff0
cfe0
ENDCHAR
STARTCHAR T
ENCODING 84
SWIDTH 600 0
DWIDTH 15 0
BBX 13 15 3 0
BITMAP
7ff8
7ff8
6318
c330
c630
c630
0600
0c00
0c00
0c00
1800
1800
1800
ff00
ff00
ENDCHAR
STARTCHAR U
ENCODING 85
SWIDTH 600 0
DWIDTH 15 0
BBX 14 15 3 0
BITMAP
7c7c
7c7c
3018
3018
6030
6030
6030
6030
c060
c060
c060
c0c0
e1c0
7f80
3f00
ENDCHAR
STARTCHAR V
ENCODING 86
SWIDTH 600 0
DWIDTH 15 0
BBX 14 15 3 0
BITMAP
f87c
f87c
6018
6030
6030
6060
6060
30c0
3180
3180
3300
3600
1e00
1c00
1800
ENDCHAR
STARTCHAR W
ENCODING 87
SWIDTH 600 0
DWIDTH 15 0
BBX 15 15 2 0
BITMAP
7c3e
7c3e
300c
318c
3398
6398
6798
67b0
6db0
6db0
d9e0
d9e0
f1c0
f1c0
e1c0
ENDCHAR
STARTCHAR X
ENCODING 88
SWIDTH 600 0
DWIDTH 15 0
BBX 17 15 0 0
BITMAP
1f9f80
1f9f80
0e0e00
061c00
033800
03f000
01e000
03c000
07c000
0e6000
1c7000
383000
703800
fcfc00
fcfc00
ENDCHAR
STARTCHAR Y
ENCODING 89
SWIDTH 600 0
DWIDTH 15 0
BBX 14 15 3 0
BITMAP
fcfc
fcfc
7038
3070
38e0
19c0
1b80
0f00
0e00
0c00
0c00
1800
1800
ff00
ff00
ENDCHAR
STARTCHAR Z
ENCODING 90
SWIDTH 600 0
DWIDTH 15 0
BBX 14 15 2 0
BITMAP
1ffc
1ffc
1838
3070
30e0
01c0
0380
0700
0e00
1c00
3830
7030
e060
ffe0
ffe0
ENDCHAR
STARTCHAR bracketleft
ENCODING 91
SWIDTH 600 0
DWIDTH 15 0
BBX 10 20 5 -4
BITMAP
07c0
07c0
0c00
0c00
0c00
1800
1800
1800
1800
3000
3000
3000
6000
6000
6000
6000
c000
c000
f800
f800
ENDCHAR
STARTCHAR backslash
ENCODING 92
SWIDTH 600 0
DWIDTH 15 0
BBX 6 20 6 -3
BITMAP
c0
c0
c0
c0
60
60
60
60
30
30
30
30
18
18
18
18
0c
0c
0c
0c
ENDCHAR
STARTCHAR bracketright
ENCODING 93
SWIDTH 600 0
DWIDTH 15 0
BBX 9 20 2 -4
BITMAP
0f80
0f80
0180
0180
0300
0300
0300
0300
0600
0600
0600
0600
0c00
0c00
0c00
0c00
1800
1800
f800
f800
ENDCHAR
STARTCHAR asciicircum
ENCODING 94
SWIDTH 600 0
DWIDTH 15 0
BBX 9 8 4 8
BITMAP
0300
0300
0700
0f00
1900
3180
6180
c180
ENDCHAR
STARTCHAR underscore
ENCODING 95
SWIDTH 600 0
DWIDTH 15 0
BBX 15 2 0 -4
BITMAP
fffe
fffe
ENDCHAR
STARTCHAR grave
ENCODING 96
SWIDTH 600 0
DWIDTH 15 0
BBX 5 4 7 11
BITMAP
c0
60
30
18
ENDCHAR
STARTCHAR a
ENCODING 97
SWIDTH 600 0
DWIDTH 15 0
BBX 12 11 1 0
BITMAP
0fc0
1fe0
1870
0030
0ff0
3fe0
7060
c0c0
c1c0
fff0
7ef0
ENDCHAR
STARTCHAR b
ENCODING 98
SWIDTH 600 0
DWIDTH 15 0
BBX 14 16 0 0
BITMAP
1e00
1e00
0600
0600
0600
0df0
0ff8
0e1c
0c0c
180c
180c
180c
3818
3c38
fff0
f7c0
ENDCHAR
STARTCHAR c
ENCODING 99
SWIDTH 600 0
DWIDTH 15 0
BBX 13 11 2 0
BITMAP
0fd8
3ff8
7070
6030
c030
c000
c000
c000
e070
7ff0
3fc0
ENDCHAR
STARTCHAR d
ENCODING 100
SWIDTH 600 0
DWIDTH 15 0
BBX 13 16 2 0
BITMAP
0078
0078
0018
0018
0030
0f30
3fb0
70f0
6060
c060
c060
c0c0
c0c0
e1c0
7ff0
3ef0
ENDCHAR
STARTCHAR e
ENCODING 101
SWIDTH 600 0
DWIDTH 15 0
BBX 12 11 2 0
BITMAP
0fc0
3fe0
7070
6030
c030
fff0
fff0
c000
e060
7fe0
3f80
ENDCHAR
STARTCHAR f
ENCODING 102
SWIDTH 600 0
DWIDTH 15 0
BBX 14 16 2 0
BITMAP
007c
01fc
0380
0300
0300
3ff0
3ff0
0600
0600
0c00
0c00
0c00
1800
1800
ffc0
ffc0
ENDCHAR
STARTCHAR g
ENCODING 103
SWIDTH 600 0
DWIDTH 15 0
BBX 14 16 2 -5
BITMAP
0fbc
3ffc
70f0
6060
c060
c060
c060
c0c0
e1c0
7fc0
3ec0
0180
0180
0380
ff00
fe00
ENDCHAR
STARTCHAR h
ENCODING 104
SWIDTH 600 0
DWIDTH 15 0
BBX 14 16 0 0
BITMAP
1f00
1f00
0300
0600
0600
0df0
0ff8
0e1c
0c0c
180c
1818
1818
3030
3030
fcfc
fcfc
ENDCHAR
STARTCHAR i
ENCODING 105
SWIDTH 600 0
DWIDTH 15 0
BBX 10 16 2 0
BITMAP
01c0
03c0
0380
0000
0000
1f00
1f00
0300
0300
0600
0600
0600
0c00
0c00
ffc0
ffc0
ENDCHAR
STARTCHAR j
ENCODING 106
SWIDTH 600 0
DWIDTH 15 0
BBX 12 21 0 -5
BITMAP
0070
00f0
00e0
0000
0000
1fe0
1fe0
0060
0060
00c0
00c0
00c0
0180
0180
0180
0300
0300
0300
0600
fe00
fc00
ENDCHAR
STARTCHAR k
ENCODING 107
SWIDTH 600 0
DWIDTH 15 0
BBX 13 16 1 0
BITMAP
1e00
1e00
0600
0600
0c00
0c78
0c78
18e0
19c0
1f80
1f00
3380
31c0
30e0
f0f8
f0f8
ENDCHAR
STARTCHAR l
ENCODING 108
SWIDTH 600 0
DWIDTH 15 0
BBX 10 16 2 0
BITMAP
0f80
0f80
0180
0180
0300
0300
0300
0600
0600
0600
0600
0c00
0c00
0c00
ffc0
ffc0
ENDCHAR
STARTCHAR m
ENCODING 109
SWIDTH 600 0
DWIDTH 15 0
BBX 16 11 0 0
BITMAP
3bde
3fff
0e73
0c63
18c6
18c6
18c6
318c
318c
f9ef
f9ef
ENDCHAR
STARTCHAR n
ENCODING 110
SWIDTH 600 0
DWIDTH 15 0
BBX 14 11 0 0
BITMAP
3cf0
3df8
0f1c
0e0c
180c
1818
1818
3030
3030
fcfc
fcfc
ENDCHAR
STARTCHAR o
ENCODING 111
SWIDTH 600 0
DWIDTH 15 0
BBX 12 11 2 0
BITMAP
0fc0
3fe0
7070
6030
c030
c030
c030
c060
e0e0
7fc0
3f00
ENDCHAR
STARTCHAR p
ENCODING 112
SWIDTH 600 0
DWIDTH 15 0
BBX 15 16 -1 -5
BITMAP
1ef8
1ffc
070e
0606
0c06
0c06
0c06
1c0c
1e1c
1bf8
19e0
3000
3000
3000
fe00
fe00
ENDCHAR
STARTCHAR q
ENCODING 113
SWIDTH 600 0
DWIDTH 15 0
BBX 14 16 2 -5
BITMAP
0fbc
3ffc
70f0
6070
c060
c060
c060
c0c0
e1c0
7fc0
3ec0
0180
0180
0180
0fe0
0fe0
ENDCHAR
STARTCHAR r
ENCODING 114
SWIDTH 600 0
DWIDTH 15 0
BBX 14 11 1 0
BITMAP
1ef8
1ffc
070c
0600
0c00
0c00
0c00
1800
1800
ffc0
ffc0
ENDCHAR
STARTCHAR s
ENCODING 115
SWIDTH 600 0
DWIDTH 15 0
BBX 12 11 2 0
BITMAP
0fb0
1ff0
3860
3860
1e00
0f80
03c0
60e0
60e0
ffc0
df80
ENDCHAR
STARTCHAR t
ENCODING 116
SWIDTH 600 0
DWIDTH 15 0
BBX 10 15 3 0
BITMAP
0c00
0c00
1800
1800
ffc0
ffc0
3000
6000
6000
6000
c000
c000
e180
7f80
3e00
ENDCHAR
STARTCHAR u
ENCODING 117
SWIDTH 600 0
DWIDTH 15 0
BBX 12 11 2 0
BITMAP
f0f0
f0f0
3030
6030
6060
6060
c060
c0c0
e1c0
7ff0
3ef0
ENDCHAR
STARTCHAR v
ENCODING 118
SWIDTH 600 0
DWIDTH 15 0
BBX 14 11 2 0
BITMAP
fcfc
fcfc
3030
3060
1860
18c0
1980
1980
0f00
0e00
0c00
ENDCHAR
STARTCHAR w
ENCODING 119
SWIDTH 600 0
DWIDTH 15 0
BBX 14 11 2 0
BITMAP
f87c
f87c
6318
6318
6730
6730
6f60
6b60
79c0
71c0
6180
ENDCHAR
STARTCHAR x
ENCODING 120
SWIDTH 600 0
DWIDTH 15 0
BBX 14 11 1 0
BITMAP
3e7c
3e7c
1830
0c60
06c0
0780
0f00
1980
30c0
f9f0
f9f0
ENDCHAR
STARTCHAR y
ENCODING 121
SWIDTH 600 0
DWIDTH 15 0
BBX 15 16 0 -5
BITMAP
1f3e
1f3e
0c0c
0c18
0c38
0630
0660
06c0
03c0
0380
0300
0600
0c00
1800
fe00
fe00
ENDCHAR
STARTCHAR z
ENCODING 122
SWIDTH 600 0
DWIDTH 15 0
BBX 11 11 2 0
BITMAP
3fe0
3fe0
31c0
3380
0700
0e00
1c00
38c0
70c0
ffc0
ffc0
ENDCHAR
STARTCHAR braceleft
ENCODING 123
SWIDTH 600 0
DWIDTH 15 0
BBX 9 20 5 -4
BITMAP
0380
0600
0c00
1800
1800
1800
1800
3000
e000
6000
3000
3000
6000
6000
6000
c000
c000
c000
6000
3800
ENDCHAR
STARTCHAR bar
ENCODING 124
SWIDTH 600 0
DWIDTH 15 0
BBX 7 18 5 -2
BITMAP
06
06
06
0c
0c
0c
18
18
18
30
30
30
60
60
60
c0
c0
c0
ENDCHAR
STARTCHAR braceright
ENCODING 125
SWIDTH 600 0
DWIDTH 15 0
BBX 10 20 2 -4
BITMAP
0600
0300
0180
0180
0180
0300
0300
0300
0180
01c0
0300
0600
0c00
0c00
0c00
0c00
1800
1800
3000
e000
ENDCHAR
STARTCHAR asciitilde
ENCODING 126
SWIDTH 600 0
DWIDTH 15 0
BBX 14 4 2 5
BITMAP
1e0c
3f18
67f0
c3e0
ENDCHAR
STARTCHAR nobreakspace
ENCODING 160
SWIDTH 600 0
DWIDTH 15 0
BBX 1 1 0 0
BITMAP
00
ENDCHAR
STARTCHAR Aogonek
ENCODING 161
SWIDTH 600 0
DWIDTH 15 0
BBX 14 19 0 -4
BITMAP
07e0
07e0
00e0
01e0
01b0
0330
0630
0630
0c30
1ff8
1ff8
3018
3018
fcfc
fcfc
0600
0c00
0d80
0700
ENDCHAR
STARTCHAR breve
ENCODING 162
SWIDTH 600 0
DWIDTH 15 0
BBX 8 3 6 12
BITMAP
c3
66
3c
ENDCHAR
STARTCHAR Lstroke
ENCODING 163
SWIDTH 600 0
DWIDTH 15 0
BBX 13 15 1 0
BITMAP
1fe0
1fe0
0300
0300
0660
06c0
0780
0f00
1e00
3c00
7818
1818
1830
fff0
fff0
ENDCHAR
STARTCHAR currency
ENCODING 164
SWIDTH 600 0
DWIDTH 15 0
BBX 13 11 2 2
BITMAP
1818
1ff8
1ff0
3870
3030
6030
6070
70e0
7fc0
ffc0
c0c0
ENDCHAR
STARTCHAR Lcaron
ENCODING 165
SWIDTH 760 0
DWIDTH 19 0
BBX 17 17 1 0
BITMAP
000380
000380
1fe700
1fe600
030c00
030800
060000
060000
060000
0c0000
0c0000
0c0000
181800
181800
183000
fff000
fff000
ENDCHAR
STARTCHAR Sacute
ENCODING 166
SWIDTH 600 0
DWIDTH 15 0
BBX 15 20 1 0
BITMAP
000c
0018
0030
0060
0000
03f6
0ffe
0e0e
1c0c
180c
1e00
0f80
03e0
00f0
0038
6018
6018
7038
fff0
cfe0
ENDCHAR
STARTCHAR section
ENCODING 167
SWIDTH 600 0
DWIDTH 15 0
BBX 15 18 1 -2
BITMAP
01fe
03fe
070c
060c
0f00
1f80
31c0
30e0
3870
1c38
0e18
0738
03f0
01e0
60c0
61c0
ff80
ff00
ENDCHAR
STARTCHAR diaeresis
ENCODING 168
SWIDTH 600 0
DWIDTH 15 0
BBX 7 2 6 12
BITMAP
c6
c6
ENDCHAR
STARTCHAR Scaron
ENCODING 169
SWIDTH 600 0
DWIDTH 15 0
BBX 15 19 1 0
BITMAP
0318
01b0
00e0
0000
03f6
0ffe
0e0e
1c0c
180c
1e00
0f80
03e0
00f0
0038
6018
6018
7038
fff0
cfe0
ENDCHAR
STARTCHAR Scedilla
ENCODING 170
SWIDTH 600 0
DWIDTH 15 0
BBX 15 21 1 -6
BITMAP
03f6
0ffe
0e0e
1c0c
180c
1e00
0f80
03e0
00f0
0038
6018
6018
7038
fff0
cfe0
00c0
0180
03c0
00c0
07c0
0380
ENDCHAR
STARTCHAR Tcaron
ENCODING 171
SWIDTH 600 0
DWIDTH 15 0
BBX 13 19 3 0
BITMAP
0c60
06c0
0380
0000
7ff8
7ff8
6318
c330
c630
c630
0600
0c00
0c00
0c00
1800
1800
1800
ff00
ff00
ENDCHAR
STARTCHAR Zacute
ENCODING 172
SWIDTH 600 0
DWIDTH 15 0
BBX 14 20 2 0
BITMAP
0018
0030
0060
00c0
0000
1ffc
1ffc
1838
3070
30e0
01c0
0380
0700
0e00
1c00
3830
7030
e060
ffe0
ffe0
ENDCHAR
STARTCHAR hyphen
ENCODING 173
SWIDTH 600 0
DWIDTH 15 0
BBX 12 2 3 6
BITMAP
7ff0
ffe0
ENDCHAR
STARTCHAR Zcaron
ENCODING 174
SWIDTH 600 0
DWIDTH 15 0
BBX 14 19 2 0
BITMAP
0630
0360
01c0
0000
1ffc
1ffc
1838
3070
30e0
01c0
0380
0700
0e00
1c00
3830
7030
e060
ffe0
ffe0
ENDCHAR
STARTCHAR Zabovedot
ENCODING 175
SWIDTH 600 0
DWIDTH 15 0
BBX 14 18 2 0
BITMAP
00c0
00c0
0000
1ffc
1ffc
1838
3070
30e0
01c0
0380
0700
0e00
1c00
3830
7030
e060
ffe0
ffe0
ENDCHAR
STARTCHAR degree
ENCODING 176
SWIDTH 600 0
DWIDTH 15 0
BBX 8 7 5 9
BITMAP
1e
63
c1
81
83
c6
78
ENDCHAR
STARTCHAR aogonek
ENCODING 177
SWIDTH 600 0
DWIDTH 15 0
BBX 12 15 1 -4
BITMAP
0fc0
1fe0
1870
0030
0ff0
3fe0
7060
c0c0
c1c0
fff0
7ef0
0c00
1800
1b00
0e00
ENDCHAR
STARTCHAR ogonek
ENCODING 178
SWIDTH 600 0
DWIDTH 15 0
BBX 5 4 5 -4
BITMAP
60
c0
d8
70
ENDCHAR
STARTCHAR lstroke
ENCODING 179
SWIDTH 600 0
DWIDTH 15 0
BBX 12 16 2 0
BITMAP
0f80
0f80
0180
0180
0330
0360
03c0
0780
0f00
1e00
3600
0c00
0c00
0c00
ffc0
ffc0
ENDCHAR
STARTCHAR acute
ENCODING 180
SWIDTH 600 0
DWIDTH 15 0
BBX 5 4 8 11
BITMAP
18
30
60
c0
ENDCHAR
STARTCHAR lcaron
ENCODING 181
SWIDTH 800 0
DWIDTH 20 0
BBX 15 18 2 0
BITMAP
000e
000e
0f9c
0f98
01b0
01a0
0300
0300
0300
0600
0600
0600
0600
0c00
0c00
0c00
ffc0
ffc0
ENDCHAR
STARTCHAR sacute
ENCODING 182
SWIDTH 600 0
DWIDTH 15 0
BBX 12 16 2 0
BITMAP
0030
0060
00c0
0180
0000
0fb0
1ff0
3860
3860
1e00
0f80
03c0
60e0
60e0
ffc0
df80
ENDCHAR
STARTCHAR caron
ENCODING 183
SWIDTH 600 0
DWIDTH 15 0
BBX 7 3 6 12
BITMAP
c6
6c
38
ENDCHAR
STARTCHAR cedilla
ENCODING 184
SWIDTH 600 0
DWIDTH 15 0
BBX 5 6 3 -5
BITMAP
18
30
78
18
f8
70
ENDCHAR
STARTCHAR scaron
ENCODING 185
SWIDTH 600 0
DWIDTH 15 0
BBX 12 15 2 0
BITMAP
0c60
06c0
0380
0000
0fb0
1ff0
3860
3860
1e00
0f80
03c0
60e0
60e0
ffc0
df80
ENDCHAR
STARTCHAR scedilla
ENCODING 186
SWIDTH 600 0
DWIDTH 15 0
BBX 12 17 2 -6
BITMAP
0fb0
1ff0
3860
3860
1e00
0f80
03c0
60e0
60e0
ffc0
df80
0300
0600
0f00
0300
1f00
0e00
ENDCHAR
STARTCHAR tcaron
ENCODING 187
SWIDTH 680 0
DWIDTH 17 0
BBX 12 18 3 0
BITMAP
0070
0070
00e0
0cc0
0d80
1900
1800
ffc0
ffc0
3000
6000
6000
6000
c000
c000
e180
7f80
3e00
ENDCHAR
STARTCHAR zacute
ENCODING 188
SWIDTH 600 0
DWIDTH 15 0
BBX 11 16 2 0
BITMAP
0060
00c0
0180
0300
0000
3fe0
3fe0
31c0
3380
0700
0e00
1c00
38c0
70c0
ffc0
ffc0
ENDCHAR
STARTCHAR doubleacute
ENCODING 189
SWIDTH 600 0
DWIDTH 15 0
BBX 9 4 5 11
BITMAP
1980
3300
6600
cc00
ENDCHAR
STARTCHAR zcaron
ENCODING 190
SWIDTH 600 0
DWIDTH 15 0
BBX 11 15 2 0
BITMAP
18c0
0d80
0700
0000
3fe0
3fe0
31c0
3380
0700
0e00
1c00
38c0
70c0
ffc0
ffc0
ENDCHAR
STARTCHAR zabovedot
ENCODING 191
SWIDTH 600 0
DWIDTH 15 0
BBX 11 14 2 0
BITMAP
0300
0300
0000
3fe0
3fe0
31c0
3380
0700
0e00
1c00
38c0
70c0
ffc0
ffc0
ENDCHAR
STARTCHAR Racute
ENCODING 192
SWIDTH 600 0
DWIDTH 15 0
BBX 15 20 0 0
BITMAP
000c
0018
0030
0060
0000
1ff0
1ffc
060e
0606
0c06
0c0e
0c1c
1ff8
1fe0
18e0
1860
3070
3030
fc3c
fc3c
ENDCHAR
STARTCHAR Aacute
ENCODING 193
SWIDTH 600 0
DWIDTH 15 0
BBX 14 20 0 0
BITMAP
000c
0018
0030
0060
0000
07e0
07e0
01e0
01b0
0330
0630
0630
0c30
0c38
1ff8
1ff8
3018
3018
fcfc
fcfc
ENDCHAR
STARTCHAR Acircumflex
ENCODING 194
SWIDTH 600 0
DWIDTH 15 0
BBX 14 20 0 0
BITMAP
0040
00e0
01b0
0330
0000
07e0
07e0
01e0
01b0
0330
0630
0630
0c30
0c38
1ff8
1ff8
3018
3018
fcfc
fcfc
ENDCHAR
STARTCHAR Abreve
ENCODING 195
SWIDTH 600 0
DWIDTH 15 0
BBX 14 19 0 0
BITMAP
0618
0330
01e0
0000
07e0
07e0
00e0
01e0
01b0
0330
0630
0630
0c30
1ff8
1ff8
3018
3018
fcfc
fcfc
ENDCHAR
STARTCHAR Adiaeresis
ENCODING 196
SWIDTH 600 0
DWIDTH 15 0
BBX 14 18 0 0
BITMAP
0318
0318
0000
07e0
07e0
01e0
01b0
0330
0630
0630
0c30
0c38
1ff8
1ff8
3018
3018
fcfc
fcfc
ENDCHAR
STARTCHAR Lacute
ENCODING 197
SWIDTH 600 0
DWIDTH 15 0
BBX 13 20 1 0
BITMAP
0030
0060
00c0
0180
0000
1fe0
1fe0
0300
0300
0600
0600
0600
0c00
0c00
0c00
1818
1818
1830
fff0
fff0
ENDCHAR
STARTCHAR Cacute
ENCODING 198
SWIDTH 600 0
DWIDTH 15 0
BBX 15 20 1 0
BITMAP
000c
0018
0030
0060
0000
03f6
0ffe
1e0e
380c
700c
6000
e000
c000
c000
c000
c000
e030
7070
7fe0
1f80
ENDCHAR
STARTCHAR Ccedilla
ENCODING 199
SWIDTH 600 0
DWIDTH 15 0
BBX 15 20 1 -5
BITMAP
03f6
0ffe
1e0e
380c
700c
6000
e000
c000
c000
c000
c000
e030
7070
7fe0
1f80
0600
0f00
0300
1f00
0e00
ENDCHAR
STARTCHAR Ccaron
ENCODING 200
SWIDTH 600 0
DWIDTH 15 0
BBX 15 19 1 0
BITMAP
0318
01b0
00e0
0000
03f6
0ffe
1e0e
380c
700c
6000
e000
c000
c000
c000
c000
e030
7070
7fe0
1f80
ENDCHAR
STARTCHAR Eacute
ENCODING 201
SWIDTH 600 0
DWIDTH 15 0
BBX 15 20 0 0
BITMAP
0018
0030
0060
00c0
0000
1ffe
1ffe
060c
060c
0c0c
0c60
0c60
0fe0
1fc0
18c0
18cc
300c
3018
fff8
fff8
ENDCHAR
STARTCHAR Eogonek
ENCODING 202
SWIDTH 600 0
DWIDTH 15 0
BBX 15 19 0 -4
BITMAP
1ffe
1ffe
0606
060c
0c0c
0c60
0c60
0fe0
1fc0
18c0
18cc
300c
3018
fff8
fff8
0300
0600
06c0
0380
ENDCHAR
STARTCHAR Ediaeresis
ENCODING 203
SWIDTH 600 0
DWIDTH 15 0
BBX 15 18 0 0
BITMAP
0318
0318
0000
1ffe
1ffe
060c
060c
0c0c
0c60
0c60
0fe0
1fc0
18c0
18cc
300c
3018
fff8
fff8
ENDCHAR
STARTCHAR Ecaron
ENCODING 204
SWIDTH 600 0
DWIDTH 15 0
BBX 15 19 0 0
BITMAP
0318
01b0
00e0
0000
1ffe
1ffe
0606
060c
0c0c
0c60
0c60
0fe0
1fc0
18c0
18cc
300c
3018
fff8
fff8
ENDCHAR
STARTCHAR Iacute
ENCODING 205
SWIDTH 600 0
DWIDTH 15 0
BBX 13 20 2 0
BITMAP
0030
0060
00c0
0180
0000
1ff8
1ff8
0180
0180
0300
0300
0300
0600
0600
0600
0c00
0c00
0c00
ffc0
ffc0
ENDCHAR
STARTCHAR Icircumflex
ENCODING 206
SWIDTH 600 0
DWIDTH 15 0
BBX 13 20 2 0
BITMAP
0080
01c0
0360
0660
0000
1ff8
1ff8
0180
0180
0300
0300
0300
0600
0600
0600
0c00
0c00
0c00
ffc0
ffc0
ENDCHAR
STARTCHAR Dcaron
ENCODING 207
SWIDTH 600 0
DWIDTH 15 0
BBX 16 19 0 0
BITMAP
0318
01b0
00e0
0000
1ffc
1ffe
0607
0603
0c03
0c03
0c03
1803
1806
1806
300c
300c
3038
fff0
ffe0
ENDCHAR
STARTCHAR Dstroke
ENCODING 208
SWIDTH 600 0
DWIDTH 15 0
BBX 16 15 0 0
BITMAP
1ffc
1ffe
0607
0603
0c03
0c03
3f03
3f03
1806
1806
300c
300c
3038
fff0
ffe0
ENDCHAR
STARTCHAR Nacute
ENCODING 209
SWIDTH 600 0
DWIDTH 15 0
BBX 16 20 0 0
BITMAP
000c
0018
0030
0060
0000
1e1f
1e1f
0e06
0e06
1b0c
1b0c
1b0c
198c
3198
3198
30d8
60d8
60f0
f870
f870
ENDCHAR
STARTCHAR Ncaron
ENCODING 210
SWIDTH 600 0
DWIDTH 15 0
BBX 16 19 0 0
BITMAP
0318
01b0
00e0
0000
1e1f
1e1f
0e06
0e06
1b0c
1b0c
1b0c
198c
3198
3198
30d8
60d8
60f0
f870
f870
ENDCHAR
STARTCHAR Oacute
ENCODING 211
SWIDTH 600 0
DWIDTH 15 0
BBX 14 20 1 0
BITMAP
0030
0060
00c0
0180
0000
07e0
0ff8
1c3c
301c
301c
600c
e00c
c00c
c01c
c018
c038
e070
71e0
7fc0
1f00
ENDCHAR
STARTCHAR Ocircumflex
ENCODING 212
SWIDTH 600 0
DWIDTH 15 0
BBX 14 20 1 0
BITMAP
0080
01c0
0360
0660
0000
07e0
0ff8
1c3c
301c
301c
600c
e00c
c00c
c01c
c018
c038
e070
71e0
7fc0
1f00
ENDCHAR
STARTCHAR Odoubleacute
ENCODING 213
SWIDTH 600 0
DWIDTH 15 0
BBX 15 20 1 0
BITMAP
0066
00cc
0198
0330
0000
03e0
0ff8
1c38
381c
700c
600c
e00c
c00c
c01c
c018
c038
e070
71e0
7fc0
1f00
ENDCHAR
STARTCHAR Odiaeresis
ENCODING 214
SWIDTH 600 0
DWIDTH 15 0
BBX 14 18 1 0
BITMAP
0630
0630
0000
07e0
0ff8
1c3c
301c
301c
600c
e00c
c00c
c01c
c018
c038
e070
71e0
7fc0
1f00
ENDCHAR
STARTCHAR multiply
ENCODING 215
SWIDTH 600 0
DWIDTH 15 0
BBX 13 12 1 1
BITMAP
3018
3838
1c70
0ee0
07c0
0380
0780
0fc0
1ce0
3870
7038
e018
ENDCHAR
STARTCHAR Rcaron
ENCODING 216
SWIDTH 600 0
DWIDTH 15 0
BBX 15 19 0 0
BITMAP
0318
01b0
00e0
0000
1ff0
1ffc
060e
0606
0c06
0c0e
0c1c
1ff8
1fe0
18e0
1860
3070
3030
fc3c
fc3c
ENDCHAR
STARTCHAR Uring
ENCODING 217
SWIDTH 600 0
DWIDTH 15 0
BBX 14 20 3 0
BITMAP
0380
06c0
06c0
0380
0000
7c7c
7c7c
3018
3018
6030
6030
6030
6030
c060
c060
c060
c0c0
e1c0
7f80
3f00
ENDCHAR
STARTCHAR Uacute
ENCODING 218
SWIDTH 600 0
DWIDTH 15 0
BBX 14 20 3 0
BITMAP
0030
0060
00c0
0180
0000
7c7c
7c7c
3018
3018
6030
6030
6030
c030
c060
c060
c060
c0c0
e1c0
7f80
3f00
ENDCHAR
STARTCHAR Udoubleacute
ENCODING 219
SWIDTH 600 0
DWIDTH 15 0
BBX 14 20 3 0
BITMAP
00cc
0198
0330
0660
0000
7c7c
7c7c
3018
3018
6030
6030
6030
6030
c060
c060
c060
c0c0
e1c0
7f80
3f00
ENDCHAR
STARTCHAR Udiaeresis
ENCODING 220
SWIDTH 600 0
DWIDTH 15 0
BBX 14 18 3 0
BITMAP
0c60
0c60
0000
7c7c
7c7c
3018
3018
6030
6030
6030
c030
c060
c060
c060
c0c0
e1c0
7f80
3f00
ENDCHAR
STARTCHAR Yacute
ENCODING 221
SWIDTH 600 0
DWIDTH 15 0
BBX 14 20 3 0
BITMAP
0060
00c0
0180
0300
0000
fcfc
fcf8
3070
38e0
39c0
1b80
1f00
0e00
0c00
0c00
0c00
1800
1800
ff00
ff00
ENDCHAR
STARTCHAR Tcedilla
ENCODING 222
SWIDTH 600 0
DWIDTH 15 0
BBX 13 21 3 -6
BITMAP
7ff8
7ff8
6318
c330
c630
c630
0600
0c00
0c00
0c00
1800
1800
1800
ff00
ff00
0180
0300
0780
0180
0f80
0700
ENDCHAR
STARTCHAR ssharp
ENCODING 223
SWIDTH 600 0
DWIDTH 15 0
BBX 13 16 1 0
BITMAP
00f0
03f8
0718
0618
0618
0c30
0de0
0df0
0c38
1818
1818
1818
3018
3330
fbf0
f9e0
ENDCHAR
STARTCHAR racute
ENCODING 224
SWIDTH 600 0
DWIDTH 15 0
BBX 14 16 1 0
BITMAP
0018
0030
0060
00c0
0000
1ef8
1ffc
070c
0600
0c00
0c00
0c00
1800
1800
ffc0
ffc0
ENDCHAR
STARTCHAR aacute
ENCODING 225
SWIDTH 600 0
DWIDTH 15 0
BBX 12 16 1 0
BITMAP
0060
00c0
0180
0300
0000
0fc0
1fe0
1870
0030
0ff0
3fe0
7060
c0c0
c1c0
fff0
7ef0
ENDCHAR
STARTCHAR acircumflex
ENCODING 226
SWIDTH 600 0
DWIDTH 15 0
BBX 12 16 1 0
BITMAP
0080
01c0
0360
0660
0000
0fc0
1fe0
1870
0030
0ff0
3fe0
7060
c0c0
c1c0
fff0
7ef0
ENDCHAR
STARTCHAR abreve
ENCODING 227
SWIDTH 600 0
DWIDTH 15 0
BBX 12 15 1 0
BITMAP
0c30
0660
03c0
0000
0fc0
1fe0
1870
0030
0ff0
3fe0
7060
c0c0
c1c0
fff0
7ef0
ENDCHAR
STARTCHAR adiaeresis
ENCODING 228
SWIDTH 600 0
DWIDTH 15 0
BBX 12 14 1 0
BITMAP
0c60
0c60
0000
0fc0
1fe0
1870
0030
0ff0
3fe0
7060
c0c0
c1c0
fff0
7ef0
ENDCHAR
STARTCHAR lacute
ENCODING 229
SWIDTH 600 0
DWIDTH 15 0
BBX 11 21 2 0
BITMAP
0060
00c0
0180
0300
0000
0f80
0f80
0180
0180
0300
0300
0300
0600
0600
0600
0600
0c00
0c00
0c00
ffc0
ffc0
ENDCHAR
STARTCHAR cacute
ENCODING 230
SWIDTH 600 0
DWIDTH 15 0
BBX 13 16 2 0
BITMAP
0030
0060
00c0
0180
0000
0fd8
3ff8
7070
6030
c030
c000
c000
c000
e070
7ff0
3fc0
ENDCHAR
STARTCHAR ccedilla
ENCODING 231
SWIDTH 600 0
DWIDTH 15 0
BBX 13 16 2 -5
BITMAP
0fd8
3ff8
7070
6030
c030
c000
c000
c000
e070
7ff0
3fc0
0c00
1e00
0600
3e00
1c00
ENDCHAR
STARTCHAR ccaron
ENCODING 232
SWIDTH 600 0
DWIDTH 15 0
BBX 13 15 2 0
BITMAP
0c60
06c0
0380
0000
0fd8
3ff8
7070
6030
c030
c000
c000
c000
e070
7ff0
3fc0
ENDCHAR
STARTCHAR eacute
ENCODING 233
SWIDTH 600 0
DWIDTH 15 0
BBX 12 16 2 0
BITMAP
0060
00c0
0180
0300
0000
0fc0
3fe0
7070
6030
c030
fff0
fff0
c000
e060
7fe0
3f80
ENDCHAR
STARTCHAR eogonek
ENCODING 234
SWIDTH 600 0
DWIDTH 15 0
BBX 12 15 2 -4
BITMAP
0fc0
3fe0
7070
6030
c030
fff0
fff0
c000
e060
7fe0
3f80
0c00
1800
1b00
0e00
ENDCHAR
STARTCHAR ediaeresis
ENCODING 235
SWIDTH 600 0
DWIDTH 15 0
BBX 12 14 2 0
BITMAP
18c0
18c0
0000
0fc0
3fe0
7070
6030
c030
fff0
fff0
c000
e060
7fe0
3f80
ENDCHAR
STARTCHAR ecaron
ENCODING 236
SWIDTH 600 0
DWIDTH 15 0
BBX 12 15 2 0
BITMAP
18c0
0d80
0700
0000
0fc0
3fe0
7070
6030
c030
fff0
fff0
c000
e060
7fe0
3f80
ENDCHAR
STARTCHAR iacute
ENCODING 237
SWIDTH 600 0
DWIDTH 15 0
BBX 11 16 2 0
BITMAP
0060
00c0
0180
0300
0000
1f00
1f00
0300
0300
0600
0600
0600
0c00
0c00
ffc0
ffc0
ENDCHAR
STARTCHAR icircumflex
ENCODING 238
SWIDTH 600 0
DWIDTH 15 0
BBX 10 16 2 0
BITMAP
0100
0380
06c0
0cc0
0000
1f00
1f00
0300
0300
0600
0600
0600
0c00
0c00
ffc0
ffc0
ENDCHAR
STARTCHAR dcaron
ENCODING 239
SWIDTH 840 0
DWIDTH 21 0
BBX 19 18 2 0
BITMAP
0000e0
0000e0
0079c0
007980
001b00
001a00
003000
0f3000
3fb000
70f000
606000
c06000
c06000
c0c000
c0c000
e1c000
7ff000
3ef000
ENDCHAR
STARTCHAR dstroke
ENCODING 240
SWIDTH 720 0
DWIDTH 18 0
BBX 16 16 2 0
BITMAP
0078
0078
0018
01ff
0030
0f30
3fb0
70f0
6060
c060
c060
c0c0
c0c0
e1c0
7ff0
3ef0
ENDCHAR
STARTCHAR nacute
ENCODING 241
SWIDTH 600 0
DWIDTH 15 0
BBX 14 16 0 0
BITMAP
0030
0060
00c0
0180
0000
3cf0
3df8
0f1c
0e0c
180c
1818
1818
3030
3030
fcfc
fcfc
ENDCHAR
STARTCHAR ncaron
ENCODING 242
SWIDTH 600 0
DWIDTH 15 0
BBX 14 15 0 0
BITMAP
0c60
06c0
0380
0000
3cf0
3df8
0f1c
0e0c
180c
1818
1818
3030
3030
fcfc
fcfc
ENDCHAR
STARTCHAR oacute
ENCODING 243
SWIDTH 600 0
DWIDTH 15 0
BBX 12 16 2 0
BITMAP
0060
00c0
0180
0300
0000
0fc0
3fe0
7070
6030
c030
c030
c030
c060
e0e0
7fc0
3f00
ENDCHAR
STARTCHAR ocircumflex
ENCODING 244
SWIDTH 600 0
DWIDTH 15 0
BBX 12 15 2 0
BITMAP
0380
06c0
0cc0
0000
0fc0
3fe0
7070
6030
c030
c030
c030
c060
e0e0
7fc0
3f00
ENDCHAR
STARTCHAR odoubleacute
ENCODING 245
SWIDTH 600 0
DWIDTH 15 0
BBX 13 16 2 0
BITMAP
0198
0330
0660
0cc0
0000
0fc0
3fe0
7070
6030
c030
c030
c030
c060
e0e0
7fc0
3f00
ENDCHAR
STARTCHAR odiaeresis
ENCODING 246
SWIDTH 600 0
DWIDTH 15 0
BBX 12 14 2 0
BITMAP
0c60
0c60
0000
0fc0
3fe0
7070
6030
c030
c030
c030
c060
e0e0
7fc0
3f00
ENDCHAR
STARTCHAR division
ENCODING 247
SWIDTH 600 0
DWIDTH 15 0
BBX 12 12 2 1
BITMAP
0380
0380
0380
0000
0000
fff0
fff0
0000
0000
1c00
1c00
1c00
ENDCHAR
STARTCHAR rcaron
ENCODING 248
SWIDTH 600 0
DWIDTH 15 0
BBX 14 15 1 0
BITMAP
0630
0360
01c0
0000
1ef8
1ffc
070c
0600
0c00
0c00
0c00
1800
1800
ffc0
ffc0
ENDCHAR
STARTCHAR uring
ENCODING 249
SWIDTH 600 0
DWIDTH 15 0
BBX 12 16 2 0
BITMAP
0700
0d80
0d80
0700
0000
f0f0
f0f0
3030
6030
6060
6060
c060
c0c0
e1c0
7ff0
3ef0
ENDCHAR
STARTCHAR uacute
ENCODING 250
SWIDTH 600 0
DWIDTH 15 0
BBX 12 16 2 0
BITMAP
00c0
0180
0300
0600
0000
f0f0
f0f0
3030
6030
6060
6060
c060
c0c0
e1c0
7ff0
3ef0
ENDCHAR
STARTCHAR udoubleacute
ENCODING 251
SWIDTH 600 0
DWIDTH 15 0
BBX 13 16 2 0
BITMAP
0198
0330
0660
0cc0
0000
f0f0
f0f0
3030
6030
6060
6060
c060
c0c0
e1c0
7ff0
3ef0
ENDCHAR
STARTCHAR udiaeresis
ENCODING 252
SWIDTH 600 0
DWIDTH 15 0
BBX 12 14 2 0
BITMAP
18c0
18c0
0000
f0f0
f0f0
3030
6030
6060
6060
c060
c0c0
e1c0
7ff0
3ef0
ENDCHAR
STARTCHAR yacute
ENCODING 253
SWIDTH 600 0
DWIDTH 15 0
BBX 15 21 0 -5
BITMAP
0018
0030
0060
00c0
0000
1f3e
1f3e
0c0c
0c18
0c38
0630
0660
06c0
03c0
0380
0300
0600
0c00
1800
fe00
fe00
ENDCHAR
STARTCHAR tcedilla
ENCODING 254
SWIDTH 600 0
DWIDTH 15 0
BBX 10 21 3 -6
BITMAP
0c00
0c00
1800
1800
ffc0
ffc0
3000
6000
6000
6000
c000
c000
e180
7f80
3e00
0600
0c00
1e00
0600
3e00
1c00
ENDCHAR
STARTCHAR abovedot
ENCODING 255
SWIDTH 600 0
DWIDTH 15 0
BBX 2 2 9 13
BITMAP
c0
c0
ENDCHAR
ENDFONT
